<?xml version="1.0" encoding="UTF-8" standalone="no"?>
<svg
   viewBox="0 0 448 448"
   version="1.1"
   id="svg4"
   sodipodi:docname="square-lastfm.svg"
   width="448"
   height="448"
   inkscape:version="1.2.1 (9c6d41e410, 2022-07-14, custom)"
   xmlns:inkscape="http://www.inkscape.org/namespaces/inkscape"
   xmlns:sodipodi="http://sodipodi.sourceforge.net/DTD/sodipodi-0.dtd"
   xmlns="http://www.w3.org/2000/svg"
   xmlns:svg="http://www.w3.org/2000/svg">
  <defs
     id="defs8" />
  <sodipodi:namedview
     id="namedview6"
     pagecolor="#ffffff"
     bordercolor="#666666"
     borderopacity="1.0"
     inkscape:showpageshadow="2"
     inkscape:pageopacity="0.0"
     inkscape:pagecheckerboard="0"
     inkscape:deskcolor="#d1d1d1"
     showgrid="false"
     inkscape:zoom="0.4609375"
     inkscape:cx="-424.13559"
     inkscape:cy="224.54237"
     inkscape:window-width="1920"
     inkscape:window-height="1028"
     inkscape:window-x="0"
     inkscape:window-y="24"
     inkscape:window-maximized="1"
     inkscape:current-layer="svg4" />
  <!--! Font Awesome Pro 6.2.0 by @fontawesome - https://fontawesome.com License - https://fontawesome.com/license (Commercial License) Copyright 2022 Fonticons, Inc. -->
  <path
     d="M 400,0 H 48 C 21.5,0 0,21.5 0,48 v 352 c 0,26.5 21.5,48 48,48 h 352 c 26.5,0 48,-21.5 48,-48 V 48 C 448,21.5 426.5,0 400,0 Z m -92.2,312.9 c -63.4,0 -85.4,-28.6 -97.1,-64.1 -16.3,-51 -21.5,-84.3 -63,-84.3 -22.4,0 -45.1,16.1 -45.1,61.2 0,35.2 18,57.2 43.3,57.2 28.6,0 47.6,-21.3 47.6,-21.3 l 11.7,31.9 c 0,0 -19.8,19.4 -61.2,19.4 -51.3,0 -79.9,-30.1 -79.9,-85.8 0,-57.9 28.6,-92 82.5,-92 73.5,0 80.8,41.4 100.8,101.9 8.8,26.8 24.2,46.2 61.2,46.2 24.9,0 38.1,-5.5 38.1,-19.1 0,-19.9 -21.8,-22 -49.9,-28.6 -30.4,-7.3 -42.5,-23.1 -42.5,-48 0,-40 32.3,-52.4 65.2,-52.4 37.4,0 60.1,13.6 63,46.6 l -36.7,4.4 c -1.5,-15.8 -11,-22.4 -28.6,-22.4 -16.1,0 -26,7.3 -26,19.8 0,11 4.8,17.6 20.9,21.3 32.7,7.1 71.8,12 71.8,57.5 0.1,36.7 -30.7,50.6 -76.1,50.6 z"
     id="path2"
     fill="currentColor"
     style="fill:#e4141e;fill-opacity:1" />
</svg>
